<?xml version="1.0" encoding="UTF-8" standalone="no"?>
<svg
  xmlns:dc="http://purl.org/dc/elements/1.1/"
  xmlns:cc="http://creativecommons.org/ns#"
  xmlns:rdf="http://www.w3.org/1999/02/22-rdf-syntax-ns#"
  xmlns:svg="http://www.w3.org/2000/svg"
  xmlns="http://www.w3.org/2000/svg"
  id="svg15"
  version="1.1"
  xml:space="preserve"
  enable-background="new 0 0 269.292 269.292"
  overflow="visible"
  viewBox="0 0 269.292 269.292"
  height="269.292"
  width="269.292">
  <metadata id="metadata21"><rdf:RDF><cc:Work
    rdf:about=""><dc:format>image/svg+xml</dc:format><dc:type
      rdf:resource="http://purl.org/dc/dcmitype/StillImage" /><dc:title></dc:title></cc:Work></rdf:RDF></metadata>
	<g id="Calque_1">
		<circle id="circle"
  r="113.386"
  cy="134.646"
  cx="134.646"
  fill="#FFFFFF"
  mask="url(#myMask)" />
    <mask id="myMask">
      <rect id="rect"
  height="269.292"
  width="269.292"
  fill="#FFFFFF" />
  		<g id="-18">
        <path id="-"
  d="M65.034,131.454 v23.94 h-45 v-23.94 H65.034 z" />
        <path id="1"
  d="M112.012,67.193 v135.72 h-26.1 V90.593 h-12.96 v-23.4 H112.012 z" />
        <path id="8"
  d="M152.151,129.474 c-12.24-4.14-18.54-15.84-18.54-28.62 c0-19.98,13.32-35.82,34.02-35.82
     c20.521,0,33.84,15.84,33.84,35.82 c0,12.78-6.119,24.3-18.539,28.8 v0.18 c16.92,5.4,23.58,18.9,23.58,36
     c0,22.32-16.201,39.24-38.881,39.24 s-39.06-16.92-39.06-39.24 c0-17.46,6.66-30.42,23.58-36 V129.474 z
     M156.111,162.414
     c0,7.02,1.98,19.26,11.34,19.26 c9.18,0,11.52-12.6,11.52-19.26 s-2.879-19.62-11.699-19.62
     C158.091,142.793,156.111,155.394,156.111,162.414 z
     M167.091,115.793 c8.279,0,8.279-10.26,8.279-15.3
     c0-4.86-0.9-14.4-8.279-14.4 c-6.48,0-7.381,9.36-7.381,14.22 C159.71,105.533,160.431,115.793,167.091,115.793 z" />
  		</g>
    </mask>
	</g>
</svg>
