<?xml version="1.0" encoding="UTF-8" standalone="no"?>
<svg
  xmlns:dc="http://purl.org/dc/elements/1.1/"
  xmlns:cc="http://creativecommons.org/ns#"
  xmlns:rdf="http://www.w3.org/1999/02/22-rdf-syntax-ns#"
  xmlns:svg="http://www.w3.org/2000/svg"
  xmlns="http://www.w3.org/2000/svg"
  id="svg15"
  version="1.1"
  xml:space="preserve"
  enable-background="new 0 0 269.292 269.292"
  overflow="visible"
  viewBox="0 0 269.292 269.292"
  height="269.292"
  width="269.292">
  <metadata id="metadata21"><rdf:RDF><cc:Work
    rdf:about=""><dc:format>image/svg+xml</dc:format><dc:type
      rdf:resource="http://purl.org/dc/dcmitype/StillImage" /><dc:title></dc:title></cc:Work></rdf:RDF></metadata>
  <g id="Calque_1">
    <rect id="black"
  height="269.292"
  width="269.292" />
    <mask id="myMask">
      <circle id="circle"
  r="113.386"
  cy="134.646"
  cx="134.646"
  fill="#FFFFFF" />
    </mask>
    <g id="-10" mask="url(#myMask)">
      <rect id="white"
  height="269.292"
  width="269.292"
  fill="#FFFFFF" />
      <path id="-"
  d="M65.034,131.454 v23.94 h-45 v-23.94 H65.034 z" />
      <path id="1"
  d="M112.012,67.193 v135.72 h-26.1 V90.593 h-12.96 v-23.4 H112.012 z" />
      <path id="0"
  d="M205.611,135.053 c0,23.94-5.58,70.021-38.16,70.021 s-38.16-46.08-38.16-70.021
     c0-23.94,5.58-70.02,38.16-70.02 S205.611,111.113,205.611,135.053 z
     M155.39,135.053 c0,8.82-1.26,45.54,12.061,45.54
     s12.061-36.72,12.061-45.54 c0-8.82,1.26-45.54-12.061-45.54 S155.39,126.233,155.39,135.053 z" />




    </g>
	</g>
</svg>
