<?xml version="1.0" encoding="UTF-8" standalone="no"?>
<svg
  xmlns:dc="http://purl.org/dc/elements/1.1/"
  xmlns:cc="http://creativecommons.org/ns#"
  xmlns:rdf="http://www.w3.org/1999/02/22-rdf-syntax-ns#"
  xmlns:svg="http://www.w3.org/2000/svg"
  xmlns="http://www.w3.org/2000/svg"
  id="svg15"
  version="1.1"
  xml:space="preserve"
  enable-background="new 0 0 269.292 269.292"
  overflow="visible"
  viewBox="0 0 269.292 269.292"
  height="269.292"
  width="269.292">
  <metadata id="metadata21"><rdf:RDF><cc:Work
    rdf:about=""><dc:format>image/svg+xml</dc:format><dc:type
      rdf:resource="http://purl.org/dc/dcmitype/StillImage" /><dc:title></dc:title></cc:Work></rdf:RDF></metadata>
	<g id="Calque_1">
		<circle id="circle"
  r="113.386"
  cy="134.646"
  cx="134.646"
  fill="#FFFFFF"
  mask="url(#myMask)" />
    <mask id="myMask">
      <rect id="rect"
  height="269.292"
  width="269.292"
  fill="#FFFFFF" />
  		<g id="-16">
        <path id="-"
  d="M65.034,131.454 v23.94 h-45 v-23.94 H65.034 z" />
        <path id="1"
  d="M112.012,67.193 v135.72 h-26.1 V90.593 h-12.96 v-23.4 H112.012 z" />
        <path id="6"
  d="M186.351,67.193 l-25.92,52.92 l0.359,0.36 c5.04-4.5,9.721-7.38,16.92-7.38
     c20.521,0,27.36,25.74,27.36,42.12 c0,24.3-9.54,49.86-37.979,49.86 c-27,0-37.081-23.94-37.081-47.7 c0-24.66,9-45.36,19.26-67.14
     l11.16-23.04 H186.351 z M156.111,160.253 c0,6.48,2.34,21.96,11.34,21.96 c10.26,0,11.52-17.28,11.52-24.12
     c0-6.66-1.619-21.24-10.8-21.24 C158.091,136.853,156.111,153.414,156.111,160.253 z" />



     
      </g>
    </mask>
	</g>
</svg>
