<?xml version="1.0" encoding="UTF-8" standalone="no"?>
<svg
  xmlns:dc="http://purl.org/dc/elements/1.1/"
  xmlns:cc="http://creativecommons.org/ns#"
  xmlns:rdf="http://www.w3.org/1999/02/22-rdf-syntax-ns#"
  xmlns:svg="http://www.w3.org/2000/svg"
  xmlns="http://www.w3.org/2000/svg"
  id="svg15"
  version="1.1"
  xml:space="preserve"
  enable-background="new 0 0 269.292 269.292"
  overflow="visible"
  viewBox="0 0 269.292 269.292"
  height="269.292"
  width="269.292">
  <metadata id="metadata21"><rdf:RDF><cc:Work
    rdf:about=""><dc:format>image/svg+xml</dc:format><dc:type
      rdf:resource="http://purl.org/dc/dcmitype/StillImage" /><dc:title></dc:title></cc:Work></rdf:RDF></metadata>
	<g id="Calque_1">
    <circle id="circle"
  r="113.386"
  cy="134.646"
  cx="134.646"
  fill="#FFFFFF"
  mask="url(#myMask)" />
    <mask id="myMask">
      <rect id="rect"
  height="269.292"
  width="269.292"
  fill="#FFFFFF" />
  		<g id="-12">
  			<path id="-"
  d="M65.034,131.454 v23.94 h-45 v-23.94 H65.034 z" />
  			<path id="1"
  d="M112.012,67.193 v135.72 h-26.1 V90.593 h-12.96 v-23.4 H112.012 z" />
  			<path id="2"
  d="M132.71,114.354 l-0.36-7.38 c0-25.2,7.2-42.12,35.459-42.12 c22.5,0,36.541,11.34,36.541,34.74
     c0,13.86-4.86,24.84-11.16,36.9 l-22.68,43.02 h31.5 v23.4 H130.73 l30.6-56.16 c7.021-12.96,17.46-31.32,17.46-46.26
     c0-7.02-2.16-16.74-10.8-16.74 c-10.261,0-10.8,14.58-10.8,21.96 l0.359,8.64 H132.71 z" />




     
  		</g>
    </mask>
	</g>
</svg>
